<?xml version="1.0" encoding="utf-8"?>
<!-- Generator: Adobe Illustrator 16.0.0, SVG Export Plug-In . SVG Version: 6.00 Build 0)  -->
<svg version="1.2" baseProfile="tiny" id="Layer_1" xmlns="http://www.w3.org/2000/svg" xmlns:xlink="http://www.w3.org/1999/xlink"
	 x="0px" y="0px"  viewBox="0 0 3000 3000" xml:space="preserve">
<g id="_x32_qSKwn.tif">
	<g>
		<path fill="#25418F" d="M2906.316,1153.038c-21.109,1.367-35.729,13.696-48.814,28.76c-15.533,17.876-27.752,38.072-40.729,57.745
			c-18.877,28.603-37.581,57.331-56.504,85.902c-2.758,4.149-4.07,8.243-4.031,13.29c0.195,32.338,0.07,64.676,0.125,97.021
			c0.016,7.423,0.633,14.774,2.266,22.079c2.203,9.86,7.898,15.86,17.719,18.407c9.945,2.578,20.064,3.984,30.275,4.297
			c5.688,0.164,3.813,3.751,4.211,6.657c0.539,3.914-1.648,4.117-4.695,4.117c-50.651-0.063-101.311-0.055-151.969-0.031
			c-2.617,0.008-5.188,0.227-4.501-3.688c0.507-2.852-1.985-6.931,4.21-7.079c8.377-0.211,16.743-1.328,24.924-3.391
			c15.719-3.945,20.102-8.742,22.438-24.759c1.008-6.876,1.477-13.782,1.493-20.704c0.07-30.361,0.015-60.714,0.054-91.083
			c0.008-2.523-0.289-4.789-1.813-6.984c-31.744-45.769-62.168-92.466-94.928-137.539c-6.305-8.672-12.859-17.157-20.055-25.126
			c-8.727-9.665-19.354-15.954-32.432-17.087c-6.251-0.539-3.867-4.742-4.25-7.86c-0.492-3.984,2.523-3.008,4.617-3.008
			c46.369-0.031,92.731,0.063,139.1-0.148c4.648-0.023,4.367,2.117,4.431,5.305c0.071,3.391-0.109,5.5-4.563,5.164
			c-6.587-0.5-13.188,0.297-19.642,1.759c-10.009,2.258-13.993,8.156-12.586,18.399c0.938,6.898,4.391,12.719,8.195,18.321
			c17.148,25.22,34.353,50.393,51.549,75.574c8.258,12.102,16.524,24.188,25.08,36.697c8.563-13.032,16.883-25.689,25.188-38.346
			c16.009-24.385,32.01-48.776,47.994-73.176c3.79-5.798,7.376-11.681,8.658-18.688c1.461-8.024-1.516-13.829-9.087-17.001
			c-7-2.945-14.461-2.898-21.86-3.344c-4.828-0.289-7.484-5.04-5.336-9.376c1-2.031,2.922-1.125,4.406-1.125
			c21.118-0.063,42.236-0.07,63.355-0.039c15.836,0.023,31.682,0.109,47.51,0.164
			C2906.316,1146.437,2906.316,1149.733,2906.316,1153.038z"/>
		<path fill="#FDFDFE" d="M824.732,1097.574c0,0.258,0,0.508,0.007,0.766c-1.805-0.047-3.625-0.148-5.43-0.148
			c-226.973,0-453.938,0-680.902-0.008c-4.931,0-9.868-0.055-14.806-0.086c0-0.172,0-0.352,0.008-0.523
			C357.317,1097.574,591.024,1097.574,824.732,1097.574z"/>
		<path fill="#25418F" d="M123.602,1098.105c4.938,0.031,9.875,0.086,14.806,0.086c226.974,0.008,453.938,0.008,680.903,0.008
			c1.805,0,3.625,0.102,5.43,0.148c1.289,1.523,1.117,3.352,1.125,5.157c0.109,15.673-0.336,31.376,0.5,47.01
			c1.172,22.001,1.297,44.019,1.992,66.027c0.273,8.883-0.43,17.836,0.602,26.595c1.32,11.212,0.906,22.36,0.703,33.51
			c-0.39,21.353-1.156,42.713-2.039,64.05c-0.679,16.47-2.008,33.002-3.953,49.37c-2.773,23.329-5.688,46.674-10.422,69.761
			c-3.984,19.431-8.367,38.713-13.719,57.823c-10.892,38.916-25.854,76.185-44.44,111.975
			c-13.148,25.307-28.345,49.425-45.439,72.285c-13.618,18.22-28.188,35.627-43.8,52.229
			c-12.164,12.923-25.001,25.048-38.135,36.947c-19.789,17.931-40.924,34.096-62.831,49.315
			c-22.493,15.61-46.025,29.462-70.175,42.33c-12.329,6.571-25.01,12.392-37.291,19.024c-2.353,1.266-4.243,0.492-6.024-0.32
			c-19.712-9.039-38.868-19.22-57.542-30.173c-21.759-12.759-42.635-26.916-62.776-42.159
			c-15.032-11.367-29.603-23.345-43.213-36.283c-17.485-16.625-34.205-34.063-49.511-52.846
			c-20.345-24.947-38.455-51.425-54.354-79.333c-10.782-18.923-20.353-38.525-28.83-58.636
			c-6.992-16.61-13.516-33.392-19.212-50.464c-6.141-18.415-11.548-37.08-15.962-56.003c-3.125-13.359-6.516-26.665-9.234-40.111
			c-2.125-10.531-3.415-21.235-5.063-31.853c-2.438-15.61-4.523-31.26-6.102-46.987c-1.531-15.267-2.672-30.564-3.962-45.854
			c-2.211-26.275-1.828-52.589-1.859-78.903c-0.062-39.275,0.032-78.559-0.094-117.834c-0.008-3.953,1.188-6.883,3.962-9.617
			c7.133-7.048,13.267-15.056,20.767-21.768C120.109,1101.074,121.461,1099.129,123.602,1098.105z M793.504,1145.726
			c0-2.969,0-5.938,0-8.915c0.008-7.586,0.008-7.57-7.734-7.586c-49.175-0.086-98.35-0.242-147.523-0.25
			c-151.492-0.031-302.984,0.023-454.484-0.094c-9.61-0.008-19.196,0.477-28.916-1.047c-9.344-1.461-19.095-0.297-28.666-0.344
			c-2.188-0.016-3.523,0.727-3.422,3.102c0.641,13.931-0.047,27.806-0.766,41.729c-0.484,9.454-0.422,18.985-0.781,28.486
			c-0.43,11.172,0.164,22.376,0.164,33.571c-0.023,18.126-0.141,36.253-0.297,54.37c-0.125,13.103,0.625,26.174,1.93,39.175
			c0.758,7.516-0.141,14.977,0.641,22.532c0.688,6.68,2.367,13.422,1.523,20.431c-0.438,3.648-0.195,7.938,0.844,11.609
			c2.125,7.524,2.07,15.368,2.789,22.916c0.641,6.672,2.164,13.282,2.492,20.071c0.414,8.383,2.438,16.774,3.695,25.188
			c1.508,10.235,3.383,20.478,6.095,30.447c2.695,9.898,4.648,19.962,7.211,29.876c5.634,21.846,12.243,43.354,20.157,64.441
			c9.415,25.11,20.564,49.447,33.408,73.035c9.93,18.235,21.532,35.4,33.244,52.471c6.469,9.431,13.868,18.243,21.173,27.111
			c5.993,7.266,12.423,14.142,18.368,21.431c7.109,8.728,16.29,15.462,24.025,23.603c8.055,8.478,17.188,15.657,26.056,23.213
			c11.642,9.93,23.712,19.235,36.197,28.032c15.11,10.642,30.908,20.149,47.026,29.229c11.438,6.453,23.274,12.164,34.571,18.806
			c9.438,5.547,17.142,5.43,27.072-0.086c15.415-8.563,31.486-16.04,46.736-24.938c23.643-13.806,45.987-29.596,67.387-46.651
			c10.259-8.172,20.259-16.751,29.751-25.798c10.813-10.29,21.158-21.103,31.275-32.088c7.852-8.523,15.337-17.415,22.462-26.548
			c12.884-16.532,24.736-33.807,35.518-51.8c11.478-19.157,21.673-38.986,30.83-59.362c10.078-22.431,18.493-45.495,25.665-69.004
			c5.414-17.767,9.711-35.83,13.954-53.925c4.344-18.501,7.875-37.127,10.563-55.87c2.579-18.032,4.782-36.135,6.228-54.347
			c0.805-10.18,1.328-20.446,2.648-30.626c1.648-12.665,1.492-25.51,1.75-38.221c0.453-23.322,1.391-46.659,0.742-70.035
			C794.316,1203.971,795.152,1174.828,793.504,1145.726z"/>
		<path fill="#25418F" d="M1682.386,1194.501c-20.134,44.55-40.275,89.091-60.394,133.647
			c-23.923,52.956-47.822,105.92-71.707,158.892c-1.133,2.484-2.125,4.297-5.578,4.391c-3.742,0.109-4.695-1.992-5.906-4.609
			c-42.471-91.716-84.965-183.424-127.468-275.124c-0.727-1.563-1.047-3.398-3.148-4.875c0,2.008,0,3.57,0,5.125
			c0,68.824-0.039,137.633,0.047,206.456c0.016,9.892,0.898,19.752,2.859,29.479c3.969,19.728,11.587,27.088,32.033,30.885
			c3.563,0.664,7.133,1.445,10.735,1.711c6.289,0.469,2.835,5.086,3.422,7.828c0.758,3.478-2.11,2.946-4.156,2.946
			c-38.284,0.016-76.575,0.008-114.866,0.016c-2.375,0-5,0.297-4.313-3.367c0.523-2.813-2.32-7.001,3.867-7.532
			c8.352-0.711,16.571-2.516,24.548-5.391c10.306-3.734,16.619-10.587,19.08-21.399c2.5-11.017,3.539-22.174,3.563-33.369
			c0.148-74.426,0.094-148.859,0.039-223.285c-0.008-7.423-0.859-14.798-2.766-22.017c-2.353-8.915-7.876-14.501-16.751-17.103
			c-8.446-2.469-17.071-3.953-25.798-4.07c-5.915-0.086-4.195-3.845-4.586-7.009c-0.547-4.375,2.313-3.766,4.953-3.766
			c31.032,0.016,62.05,0.102,93.075-0.102c4.07-0.023,5.977,1.273,7.656,4.922c38.899,84.302,77.935,168.54,116.943,252.779
			c0.617,1.328,1.344,2.602,2.313,4.453c6.993-15.462,13.743-30.431,20.501-45.385c31.854-70.512,63.746-141.008,95.467-211.573
			c1.75-3.884,3.656-5.242,7.977-5.211c31.353,0.211,62.706,0.109,94.067,0.133c2.438,0.008,5.618-1.063,5.133,3.539
			c-0.352,3.367,1.273,7.445-4.797,7.359c-5.938-0.078-11.806,1.18-17.563,2.656c-15.572,3.969-20.884,9.915-23.001,25.744
			c-0.695,5.227-1.095,10.477-1.095,15.774c0.047,79.887,0.032,159.758,0.039,239.637c0,7.61,0.828,15.11,2.837,22.479
			c2.023,7.406,6.579,12.266,13.79,14.969c8.266,3.102,16.876,4.672,25.556,5.273c6.462,0.454,3.743,4.751,4.134,7.728
			c0.57,4.375-2.898,3.086-5.032,3.086c-43.072,0.063-86.146,0.047-129.217,0.047c-3.305,0-6.609-0.133-9.906,0.039
			c-2.556,0.133-4.047-0.836-3.266-3.344c0.766-2.453-2.751-6.672,2.773-7.281c7.695-0.859,15.329-2.039,22.899-3.806
			c11.923-2.797,18.274-10.242,19.946-22.196c1.102-7.844,1.961-15.712,1.969-23.626c0.031-78.059,0.015-156.117,0.015-234.185
			c0-0.766,0-1.516,0-2.281C1683.003,1194.556,1682.699,1194.524,1682.386,1194.501z"/>
		<path fill="#25418F" d="M2392.979,1323.344c13.336,16.407,26.125,32.119,38.908,47.847c22.68,27.892,45.479,55.698,67.995,83.73
			c11.321,14.095,24.993,23.854,43.417,25.588c6.625,0.625,2.844,5.375,3.414,8.18c0.758,3.719-2.578,2.523-4.376,2.531
			c-25.908,0.07-51.823,0.016-77.723,0.094c-2.695,0.008-4.478-0.719-6.267-2.914c-41.979-51.737-84.082-103.388-126.076-155.117
			c-2.359-2.898-4.625-4.672-8.649-4.055c-4.376,0.68-8.853,0.867-13.29,0.914c-2.727,0.023-3.18,1.156-3.172,3.555
			c0.117,35.807,0.086,71.612,0.25,107.419c0.031,6.423,0.984,12.798,2.719,19.033c2,7.203,6.359,12.055,13.359,14.742
			c9.024,3.469,18.493,4.742,27.994,5.704c6.016,0.609,2.445,4.891,3.164,7.43c0.891,3.125-1.367,3.273-3.758,3.273
			c-46.049-0.039-92.082-0.031-138.123-0.023c-2.211,0-4.783,0.234-4.07-3.094c0.585-2.719-2.72-7.133,3.609-7.648
			c7.031-0.578,13.985-2.039,20.868-3.845c10.821-2.836,16.798-9.727,18.501-20.657c1.165-7.5,2.047-15.024,2.047-22.626
			c0-78.879,0-157.75-0.008-236.629c0-7.618-0.844-15.126-2.891-22.486c-2.094-7.5-6.609-12.688-14.008-15.43
			c-7.642-2.829-15.517-4.634-23.611-4.915c-6.07-0.203-4.266-4.297-4.609-7.602c-0.438-4.195,2.485-3.367,4.83-3.367
			c52.299,0.102,104.614-0.164,156.914,0.484c23,0.289,45.572,4.445,66.801,13.993c34.9,15.695,51.572,42.979,50.518,81.215
			c-1.031,37.361-21.126,60.284-54.3,73.824C2420.636,1317.68,2407.385,1320.891,2392.979,1323.344z M2307.192,1243.215
			c0,21.29-0.015,42.572,0.031,63.87c0.008,1.883-1.022,4.47,2.798,4.227c20.719-1.328,41.479-2.328,61.869-6.734
			c17.525-3.789,33.322-10.773,44.611-25.321c13.196-17.024,15.274-36.713,12.682-57.292c-3.188-25.314-17.08-42.331-40.839-51.144
			c-22.149-8.228-45.206-8.547-68.331-6.273c-9.673,0.953-12.18,4.438-12.76,14.305c-0.086,1.477-0.063,2.969-0.063,4.446
			C2307.192,1203.268,2307.192,1223.237,2307.192,1243.215z"/>
		<path fill="#25418F" d="M1825.698,1320.563c-0.117-38.494,6.148-72.152,24.501-102.45c28.268-46.698,69.488-74.426,124.054-81.044
			c40.939-4.961,80.004,1.047,115.404,23.268c41.862,26.267,67.565,64.12,76.739,112.646c7.633,40.4,6.625,80.73-8.939,119.193
			c-23.125,57.167-65.643,92.271-126.428,103.459c-42.636,7.859-84.043,2.695-121.67-20.088
			c-44.861-27.173-71.121-67.55-80.465-119.014C1826.535,1343.509,1825.473,1330.368,1825.698,1320.563z M1885.85,1316.953
			c-0.031,18.665,1.063,37.236,4.414,55.62c4.898,26.821,13.977,51.619,32.51,72.473c31.954,35.954,83.691,45.354,124.443,21.571
			c28.205-16.454,45.713-41.386,53.909-72.676c12.126-46.237,12.103-92.942,3.375-139.688
			c-5.196-27.829-16.595-52.511-37.885-72.184c-29.932-27.665-72.558-35.666-108.81-18.806
			c-28.627,13.306-47.479,36.002-58.534,65.27C1888.514,1257.021,1885.967,1286.826,1885.85,1316.953z"/>
		<path fill="#25418F" d="M1142.054,1491.267c-45.878,0-91.755,0.016-137.633-0.063c-2.023-0.008-5.594,1.586-5.195-2.875
			c0.289-3.203-2.172-7.617,4.407-8.063c8.531-0.578,16.914-2.43,25.118-5.117c8.407-2.766,12.993-8.523,14.806-16.915
			c1.57-7.289,2.172-14.657,2.172-22.095c-0.008-79.215-0.016-158.422,0-237.63c0-7.281-0.648-14.477-2.156-21.61
			c-2.07-9.727-7.523-16.157-17.242-19.024c-7.313-2.148-14.72-3.844-22.307-3.969c-6.344-0.102-4.602-4.32-4.859-7.805
			c-0.328-4.423,2.914-3.094,5.039-3.094c90.107-0.048,180.205,0,270.319-0.149c4.492-0.008,5.359,1.305,5.414,5.532
			c0.298,21.751,0.836,43.51,1.603,65.261c0.147,4.313-1.203,5.148-5.173,5.016c-8.203-0.297-8.078-0.109-10.165-8.305
			c-1.383-5.414-3.109-10.742-4.82-16.071c-5.445-17.056-17.235-26.165-34.916-28.415c-10.484-1.328-20.978-2.313-31.524-2.359
			c-26.235-0.109-52.479-0.047-78.715-0.031c-14.118,0.016-17.001,2.945-17.009,17.234c-0.008,37.292,0.063,74.59-0.094,111.882
			c-0.016,3.992,0.813,5.313,5.047,5.273c28.384-0.242,56.769-0.164,85.145-0.289c7.431-0.039,14.767-1.141,21.994-2.938
			c8.797-2.18,14.813-7.423,18.509-15.657c4.016-8.931,6.547-18.29,8.352-27.838c0.578-3.078,1.688-3.984,4.75-3.953
			c8.462,0.078,8.462-0.07,8.462,8.211c0,36.143-0.086,72.285,0.102,108.42c0.023,4.446-1.023,5.712-5.625,5.837
			c-5.478,0.156-7.618-1.383-8.438-6.993c-1.188-8.125-4.016-15.922-7.165-23.571c-4.055-9.844-11.227-15.501-21.508-17.696
			c-8.103-1.734-16.306-2.398-24.557-2.43c-26.564-0.086-53.144,0.047-79.707-0.109c-3.844-0.023-5.407,0.617-5.392,5.008
			c0.172,41.76,0.086,83.504,0.125,125.257c0.008,12.923,3.875,17.853,16.657,19.212c23.166,2.461,46.448,1.992,69.699,1.438
			c13.837-0.336,27.541-2.109,41.213-4.555c22.338-3.992,39.042-15.86,51.3-34.58c4.978-7.587,9.61-15.376,13.243-23.688
			c1.344-3.079,2.961-4.415,6.555-4.329c10.156,0.266,10.103,0.055,7.516,9.837c-6.531,24.673-13.086,49.331-19.423,74.059
			c-0.945,3.695-2.43,4.852-6.305,4.836C1233.816,1491.212,1187.931,1491.267,1142.054,1491.267z"/>
		<path fill="#25418F" d="M2062.547,1734.607c11.626,14.274,22.854,28.064,34.08,41.838c8.227,10.095,16.54,20.126,24.674,30.299
			c5.688,7.109,12.563,12.079,21.773,13.251c2.438,0.313,3.844,0.984,3.594,3.914c-0.281,3.391-2.672,2.305-4.367,2.32
			c-12.203,0.078-24.423-0.141-36.627,0.141c-4.039,0.094-6.633-1.141-9.164-4.273c-21.649-26.813-43.463-53.495-65.245-80.207
			c-2.626-3.227-10.563-5.055-14.172-3.375c-1.423,0.656-1.195,1.813-1.188,2.906c0.054,20.298-0.164,40.588,0.328,60.87
			c0.249,10.845,3.617,14.103,14.188,16.423c2.891,0.641,5.813,1.328,8.75,1.477c2.766,0.141,2.57,1.68,2.656,3.594
			c0.125,2.523-1.398,2.492-3.164,2.492c-24.58-0.023-49.167-0.023-73.738-0.008c-1.781,0-3.266-0.016-3.234-2.5
			c0.031-2.023,0.148-3.422,2.734-3.633c2.945-0.242,5.875-0.867,8.75-1.578c8.462-2.087,10.907-4.868,12.189-13.36
			c0.688-4.578,0.984-9.173,0.984-13.798c-0.016-41.08-0.008-82.16-0.008-123.232c0-0.821,0.015-1.657,0-2.477
			c-0.336-17.415-3.742-21.283-20.939-23.588c-2.07-0.273-3.758-0.391-3.742-3.32c0.023-3.375,2.219-2.648,4.047-2.648
			c28.704,0.031,57.417-0.195,86.105,0.266c14.274,0.234,27.939,3.602,40.768,10.493c28.299,15.203,29.525,63.128-0.218,77.988
			C2083.11,1729.514,2073.508,1732.615,2062.547,1734.607z M2015.888,1689.723c0,11.203,0.164,22.415-0.093,33.619
			c-0.086,3.836,1.008,4.539,4.719,4.344c9.883-0.539,19.696-1.414,29.416-3.297c18.195-3.523,29.329-13.603,31.907-30.432
			c3.204-20.853-4.134-38.213-26.306-44.322c-10.461-2.883-21.165-3.086-31.869-2.18c-6.016,0.5-7.664,2.492-7.727,8.641
			C2015.817,1667.308,2015.896,1678.519,2015.888,1689.723z"/>
		<path fill="#25418F" d="M1259.583,1672.925c-0.164,1.828-0.266,2.422-0.258,3.016c0.039,38.596,0.063,77.207,0.195,115.811
			c0.016,3.438,0.539,6.922,1.227,10.298c2.297,11.32,6.461,15.273,17.915,17.345c1.625,0.297,3.25,0.757,4.875,0.781
			c2.625,0.031,2.664,1.555,2.727,3.555c0.07,2.453-1.266,2.57-3.109,2.57c-20.462-0.031-40.916-0.039-61.378,0
			c-1.891,0-3.126-0.219-3.126-2.609c0.008-2.103,0.305-3.345,2.797-3.563c2.767-0.243,5.532-0.884,8.243-1.563
			c10.75-2.68,14.563-7.008,15.853-18.017c0.688-5.898,1.086-11.805,1.078-17.751c-0.047-39.104-0.023-78.207-0.023-117.311
			c0-11.446-9.399-21.907-20.908-23.267c-1.469-0.164-2.961-0.422-4.43-0.383c-2.383,0.07-2.547-1.32-2.586-3.181
			c-0.055-1.953,0.719-2.555,2.602-2.547c14.845,0.048,29.697,0.079,44.541-0.022c2.478-0.017,3.383,1.68,4.595,3.172
			c34.26,42.283,68.519,84.566,102.771,126.85c1.516,1.868,3.063,3.728,4.712,5.72c1.414-1.767,0.828-3.438,0.828-4.978
			c0.047-30.188,0.063-60.386,0.008-90.574c-0.008-5.103-0.344-10.196-1.282-15.251c-2.273-12.22-5.789-15.907-17.984-18.274
			c-1.617-0.313-3.258-0.602-4.899-0.656c-2.57-0.086-3.297-1.313-3.211-3.773c0.094-2.758,1.914-2.18,3.438-2.18
			c10.392-0.031,20.79-0.016,31.182-0.016c9.735,0,19.47-0.009,29.197,0c1.789,0.008,3.648-0.384,3.648,2.563
			c-0.008,2.359-0.945,3.023-3.095,3.422c-19.211,3.586-22.219,6.953-23.743,26.478c-0.359,4.595-0.602,9.212-0.609,13.821
			c-0.039,47.026-0.007,94.044-0.078,141.063c-0.008,1.938,1.328,4.688-1.094,5.727c-2.836,1.234-4.712-0.82-6.492-3.031
			c-36.901-45.667-73.863-91.278-110.819-136.891C1268.739,1684.159,1264.575,1679.058,1259.583,1672.925z"/>
		<path fill="#25418F" d="M1849.763,1826.276c-24.423,0-48.847,0.023-73.277-0.039c-1.829-0.008-4.376,1.172-4.673-2.547
			c-0.304-3.695,2.22-3.398,4.359-3.758c19.009-3.273,21.009-5.634,21.017-24.751c0-42.745,0-85.481,0-128.226
			c0-1.156,0.008-2.313-0.008-3.461c-0.203-14.72-4.797-19.72-19.509-21.267c-1.312-0.141-2.625-0.281-3.93-0.438
			c-2.22-0.258-1.75-1.977-1.836-3.399c-0.117-1.758,0.813-2.344,2.406-2.258c0.82,0.039,1.656,0,2.477,0
			c47.526,0,95.06,0.063,142.586-0.109c4.109-0.016,5.383,1.227,5.445,5.126c0.164,10.711,0.641,21.423,0.923,32.134
			c0.046,1.798,0.813,4.259-2.517,4.149c-2.492-0.078-5.531,0.891-5.781-3.212c-0.008-0.164-0.086-0.313-0.133-0.484
			c-5.461-21.415-10.383-25.728-32.36-26.399c-16.657-0.508-33.337-0.297-49.995-0.219c-6.344,0.031-8.001,1.781-8.023,7.984
			c-0.078,20.626-0.032,41.252-0.032,61.886c0,1.813-0.366,3.595,2.57,3.509c17.313-0.484,34.635,0.664,51.94-0.695
			c9.742-0.766,15.313-5.962,17.719-15.095c0.711-2.711,1.688-5.391,1.992-8.149c0.375-3.344,2.164-3.742,5.016-3.742
			c3.703,0,2.766,2.508,2.773,4.445c0.039,19.47,0.039,38.947-0.008,58.425c-0.007,1.734,0.984,4.228-2.422,4.251
			c-2.563,0.016-4.836,0.258-5.289-3.384c-0.531-4.242-2.07-8.289-3.555-12.313c-2.414-6.531-7.047-9.931-13.876-11.048
			c-6.899-1.141-13.806-0.961-20.72-0.992c-10.728-0.055-21.454,0.063-32.182-0.07c-2.75-0.031-4.07,0.305-4.047,3.648
			c0.164,22.775,0.039,45.55,0.117,68.324c0.024,6.406,2.438,9.047,8.767,9.594c17.446,1.485,34.884,1.243,52.354-0.242
			c20.727-1.773,33.76-13.445,41.885-31.54c1.734-3.844,4.117-4.422,7.664-4.234c2.125,0.117,2.531,0.906,2.047,2.734
			c-3.899,14.478-7.859,28.915-11.587,43.432c-0.837,3.281-3.094,2.398-5.032,2.398
			C1898.608,1826.292,1874.186,1826.276,1849.763,1826.276z"/>
		<path fill="#25418F" d="M1023.781,1712.544c0-16.493,0.18-33.01-0.063-49.503c-0.21-14.954-4.75-19.22-20.931-20.915
			c-1.984-0.211-4.953,0.797-4.82-3.148c0.07-2.063,0.547-2.891,2.766-2.883c25.415,0.063,50.831,0.047,76.246,0.023
			c1.711,0,2.867,0.281,2.813,2.391c-0.039,1.805-0.125,3.242-2.477,3.398c-4.445,0.289-8.813,1.047-13.134,2.242
			c-5.602,1.547-8.586,5.242-9.618,10.728c-0.68,3.563-1.109,7.148-1.102,10.805c0.047,32.182,0.023,64.363,0.023,96.544
			c0,6.789,0.75,13.509,2.164,20.126c4.148,19.329,16.642,31.119,36.369,33.963c9.509,1.367,19.11,1.141,28.541-1
			c20.423-4.641,32.095-18.274,34.938-40.275c1-7.711,1.352-15.454,1.367-23.188c0.047-26.729-0.117-53.464-0.272-80.192
			c-0.023-3.281-0.337-6.594-0.852-9.836c-2.071-12.853-5.181-16.079-17.899-18.884c-1.766-0.391-3.556-0.711-5.353-0.883
			c-2.117-0.203-2.617-1.32-2.656-3.305c-0.047-2.407,1.211-2.642,3.086-2.634c20.134,0.023,40.269,0.017,60.402,0.017
			c1.672,0,3.328-0.234,3.344,2.367c0.016,2.172-0.57,3.281-2.923,3.633c-3.414,0.492-6.805,1.234-10.125,2.148
			c-7.032,1.953-11.126,6.578-12.407,13.837c-1.071,6.023-1.664,12.086-1.681,18.188c-0.102,28.384-0.085,56.769-0.21,85.152
			c-0.039,8.103-1.289,16.103-3.392,23.924c-6.023,22.493-20.743,36.235-43.08,41.783c-17.407,4.32-35.033,4.359-52.432,0.07
			c-25.416-6.274-39.947-22.954-44.659-48.479c-1.352-7.313-1.898-14.696-1.859-22.142c0.086-14.688,0.032-29.385,0.032-44.072
			C1023.883,1712.544,1023.836,1712.544,1023.781,1712.544z"/>
		<path fill="#25418F" d="M2236.282,1632.173c10.243-0.578,20.149,3.25,30.204,6.391c2.359,0.734,4.695,1.563,7.078,2.156
			c5.703,1.43,9.485-0.109,11.556-5.477c1.109-2.867,2.703-3.195,5.212-3.102c3.086,0.125,2.117,2.547,2.273,4.016
			c1.961,17.704,3.836,35.408,5.594,53.128c0.14,1.422,1.555,3.969-1.563,4.234c-2.539,0.219-5.172,0.742-5.938-3.188
			c-1.031-5.344-3.126-10.407-5.547-15.282c-9.539-19.212-25.057-29.814-46.486-30.868c-12.775-0.625-23.807,6.313-27.729,16.117
			c-4.297,10.751-1.219,22.971,8.095,32.025c5.71,5.547,12.313,9.915,19.04,14.118c13.266,8.297,26.946,15.946,39.619,25.188
			c4.805,3.508,9.424,7.258,13.556,11.524c26.103,26.876,14.157,70.801-22.665,83.246c-17.415,5.892-34.721,4.641-51.894-1.25
			c-4.359-1.492-8.68-3.086-13.11-4.359c-6.336-1.82-9.438-0.305-11.313,5.891c-0.883,2.938-2.266,3.727-5.164,3.648
			c-3.594-0.102-2.688-2.734-2.954-4.57c-2.523-17.626-5-35.252-7.375-52.894c-0.171-1.313-1.601-3.68,1.141-3.891
			c2.172-0.164,4.938-1.375,6.32,2.039c1.907,4.72,3.914,9.446,6.32,13.931c8.665,16.134,20.524,28.705,39.119,33.064
			c12.376,2.898,24.267,2.172,34.759-6.056c15.306-12.016,15.447-36.541,0.188-50.619c-6.681-6.173-14.392-11.001-22.048-15.86
			c-11.135-7.063-22.455-13.837-33.439-21.11c-12.626-8.345-22.447-18.962-24.861-34.674c-4.695-30.643,17.532-56.964,48.456-57.495
			C2233.712,1632.157,2234.703,1632.173,2236.282,1632.173z"/>
		<path fill="#25418F" d="M2751.341,1723.99c14.134-21.649,28.11-43.011,41.987-64.426c1.141-1.758,1.852-3.867,2.398-5.914
			c1.358-5.148-0.609-8.688-5.586-10.43c-3.641-1.266-7.461-1.297-11.235-1.392c-2.142-0.047-2.852-0.852-2.891-2.945
			c-0.047-2.227,0.898-2.789,2.954-2.781c19.133,0.055,38.275,0.039,57.416,0.016c1.672,0,2.891,0.18,2.798,2.336
			c-0.086,1.728,0.054,3.22-2.353,3.478c-12.063,1.328-19.695,9.43-26.586,18.173c-14.197,18.024-25.541,38.01-38.424,56.94
			c-3.344,4.906-6.173,10.18-9.798,14.836c-3.774,4.86-4.915,10.009-4.782,16.048c0.375,17.313,0.266,34.635,0.438,51.948
			c0.016,2.281,0.523,4.563,0.82,6.844c0.883,6.859,5.102,10.485,11.609,11.642c4.531,0.813,9.11,1.438,13.688,1.898
			c2.086,0.211,3.36,0.477,3.313,3.055c-0.047,2.484-1.078,2.992-3.313,2.992c-27.22-0.055-54.448-0.055-81.669-0.008
			c-2.156,0.008-3.344-0.359-3.383-2.914c-0.039-2.508,1.087-2.93,3.234-3.117c5.078-0.445,10.141-1.063,15.103-2.445
			c4.915-1.383,7.962-4.259,9.125-9.298c1.056-4.523,1.633-9.102,1.665-13.711c0.101-16.493,0.015-33.002,0.07-49.495
			c0.008-2.219-0.392-4.117-1.696-6c-17.767-25.58-34.681-51.753-53.167-76.848c-2.438-3.321-5.047-6.517-7.673-9.688
			c-4.782-5.781-10.657-9.805-18.29-10.72c-2.117-0.257-3.156-0.922-3.133-3.359c0.031-2.938,1.853-2.57,3.641-2.57
			c24.423,0,48.838-0.008,73.262,0.016c1.68,0,3.688-0.648,3.828,2.375c0.148,2.977-1.446,3.016-3.633,3.094
			c-3.117,0.109-6.29,0.281-9.336,0.914c-6.063,1.251-8.422,5.376-6.907,11.376c0.734,2.914,2.071,5.563,3.743,8.016
			c13.609,20.032,27.259,40.058,40.908,60.066C2749.926,1722.631,2750.543,1723.146,2751.341,1723.99z"/>
		<path fill="#25418F" d="M2535.143,1636.134c25.563,0,51.135,0.023,76.707-0.039c2.766-0.008,4.523,0.102,4.555,3.75
			c0.14,14.009,0.594,28.01,0.922,42.018c0.039,1.352,0.828,3.376-1.703,3.048c-1.938-0.251-4.626,1.633-5.578-2.126
			c-1.383-5.406-3.126-10.742-4.938-16.031c-3.571-10.384-11.01-15.962-21.814-17.47c-10.344-1.453-20.727-1.164-31.111-1.281
			c-2.132-0.023-2.992,0.773-2.828,2.875c0.102,1.313,0.008,2.641,0.008,3.961c0,46.69,0,93.372,0,140.062
			c0.008,19.572,2.336,22.252,21.695,25.002c0.977,0.141,1.969,0.461,2.931,0.391c2.727-0.188,2.719,1.469,2.766,3.461
			c0.07,2.461-1.358,2.547-3.173,2.539c-11.055-0.031-22.109-0.016-33.157-0.016c-14.353,0-28.713,0.031-43.058-0.039
			c-1.867-0.008-4.413,1.109-4.616-2.609c-0.172-3.274,1.75-3.195,3.97-3.485c4.391-0.586,8.781-1.203,13.086-2.438
			c5.415-1.555,8.267-5.023,9.282-10.367c0.827-4.392,1.18-8.813,1.18-13.274c-0.015-47.019-0.07-94.028,0.094-141.054
			c0.015-4.196-1.134-5.259-5.188-5.071c-8.891,0.406-17.774,0.07-26.665,1.133c-12.557,1.508-21.212,7.517-24.9,19.899
			c-1.313,4.407-2.805,8.813-3.617,13.329c-0.734,4.102-3.578,2.461-5.695,2.648c-3,0.258-2.242-1.938-2.188-3.727
			c0.391-13.509,0.883-27.018,1.008-40.525c0.031-3.758,1.172-4.664,4.813-4.641
			C2483.67,1636.204,2509.406,1636.134,2535.143,1636.134z"/>
		<path fill="#25418F" d="M1663.182,1782.407c6.031-16.079,11.782-31.299,17.47-46.542c8.914-23.892,17.797-47.783,26.681-71.69
			c0.508-1.384,0.867-2.829,1.195-4.274c2.461-10.656-1.711-16.509-12.571-17.681c-1.64-0.172-3.289-0.445-4.922-0.391
			c-2.148,0.07-2.829-0.781-2.837-2.906c0-2.117,0.642-2.844,2.806-2.836c17.821,0.07,35.635,0.055,53.447,0.023
			c1.735-0.008,2.845,0.313,2.806,2.406c-0.032,1.805-0.172,3.359-2.399,3.594c-10.75,1.148-16.345,8.493-20.345,17.392
			c-9.719,21.618-17.672,43.956-26.4,65.973c-13.211,33.346-26.235,66.753-39.368,100.122c-0.673,1.695-0.711,3.805-3.603,3.898
			c-3.078,0.102-3.406-2.117-4.227-3.953c-23.518-52.206-46.971-104.436-70.527-156.617c-2.438-5.383-5.336-10.579-8.258-15.735
			c-3.649-6.415-9.211-10.204-16.627-11.024c-2.21-0.242-4.109-0.281-4-3.539c0.118-3.477,2.423-2.461,4.117-2.469
			c22.939-0.047,45.862-0.047,68.794-0.016c1.96,0.008,4.391-0.844,4.344,2.844c-0.047,3.695-2.523,2.625-4.453,2.789
			c-2.296,0.195-4.608,0.242-6.899,0.508c-8.797,1.047-12.102,5.898-9.68,14.438c2.438,8.586,6.445,16.548,10.079,24.649
			C1632.742,1714.708,1647.729,1748.015,1663.182,1782.407z"/>
		<path fill="#25418F" d="M1484.267,1636.134c12.532,0,25.088-0.078,37.619,0.086c1.789,0.016,4.844-1.789,5.032,2.484
			c0.171,4.344-3.017,2.945-5.079,3.344c-3.227,0.625-6.532,0.898-9.759,1.516c-7.281,1.398-11.056,6.11-11.938,13.251
			c-0.445,3.594-0.813,7.227-0.813,10.837c-0.055,42.416-0.063,84.832,0,127.248c0.008,3.773,0.398,7.579,0.891,11.329
			c0.828,6.352,4.211,10.641,10.735,11.892c4.376,0.836,8.75,1.719,13.173,2.102c2.633,0.219,2.727,1.445,2.781,3.477
			c0.07,2.422-1.204,2.594-3.094,2.594c-26.08-0.031-52.152-0.031-78.231,0c-2,0-3.516-0.047-3.508-2.766
			c0-2.297,0.711-3.078,3.063-3.305c5.063-0.492,10.133-1.117,15.055-2.688c4.54-1.453,7.118-4.415,8.251-8.954
			c1.251-5.016,1.391-10.125,1.398-15.22c0.047-41.424,0.047-82.848,0.008-124.271c-0.008-4.445-0.267-8.884-0.962-13.298
			c-1.117-7.172-5.406-11.063-12.258-12.353c-3.719-0.703-7.492-1.163-11.258-1.5c-2.117-0.187-3.29-0.641-3.29-3.148
			c0-2.836,1.688-2.664,3.578-2.656C1458.516,1636.142,1471.391,1636.134,1484.267,1636.134z"/>
		<path fill="#25418F" d="M2384.93,1826.276c-12.703,0-25.406-0.008-38.111,0.008c-2.031,0-3.859,0.273-3.914-2.859
			c-0.047-2.992,1.586-2.93,3.688-3.203c4.727-0.625,9.462-1.141,14.079-2.539c4.977-1.5,7.859-4.688,8.789-9.634
			c0.578-3.07,1.094-6.195,1.102-9.298c0.063-45.197,0.188-90.402-0.063-135.601c-0.086-14.962-4.837-19.462-19.807-20.884
			c-1.641-0.156-3.281-0.422-4.93-0.414c-2.125,0.008-2.773-0.914-2.82-3.008c-0.047-2.328,1.023-2.867,2.993-2.711
			c0.492,0.047,0.991,0.008,1.483,0.008c25.408,0,50.816-0.023,76.223,0.039c1.672,0.008,4.07-1.094,4.281,2.359
			c0.211,3.313-1.813,3.352-4.008,3.453c-3.969,0.188-7.828,0.898-11.703,1.789c-6.454,1.469-9.806,5.563-10.938,11.86
			c-0.681,3.742-1.001,7.508-1.001,11.313c0.024,42.893,0.016,85.785,0.016,128.686c0,0.328,0,0.664,0,0.993
			c0.125,17.384,3.32,20.97,20.556,23.079c0.977,0.125,1.953,0.305,2.93,0.453c2,0.305,4.281-0.234,4.181,3.273
			c-0.109,3.642-2.438,2.828-4.406,2.837C2410.666,1826.292,2397.798,1826.276,2384.93,1826.276z"/>
		<path fill="#25418F" d="M230.795,1320.18c3.82-1.984,7.711-3.828,11.446-5.961c11.993-6.86,23.501-14.337,34.588-22.688
			c13.259-9.993,25.243-21.166,36.291-33.369c9.728-10.767,18.954-22.024,25.462-35.197c0.492-1,1.289-1.906,2.102-2.695
			c1.273-1.25,2.352-1.289,2.5,0.852c0.086,1.148,0.102,2.32,0,3.461c-1.164,13.517,2.336,26.454,5.656,39.244
			c6.267,24.126,15.463,47.151,30.807,67.09c7.734,10.055,15.72,19.97,24.118,29.532c4.985,5.681,9.399,12.009,14.353,17.782
			c8.172,9.548,16.313,19.165,24.274,28.846c7.243,8.82,14.899,17.345,21.704,26.556c5.368,7.266,11.665,13.829,17.485,20.743
			c5.751,6.845,11.384,13.798,17.157,20.618c8.063,9.524,16.242,18.946,24.306,28.463c4.681,5.516,8.915,11.445,13.954,16.603
			c4.984,5.094,9.087,10.875,13.782,16.181c7.164,8.102,13.626,16.837,21.032,24.696c5.539,5.876,10.578,12.196,15.821,18.274
			c4.781,5.539,9.931,10.853,14.204,16.923c3.852,5.484,8.977,10.063,13.188,15.321c3.422,4.266,7.626,7.813,10.618,12.492
			c1.836,2.867,0.477,4.242-1.305,5.798c-2.063,1.797-4.087,4.133-7.235,2.016c-0.805-0.539-1.414-1.383-2.109-2.078
			c-55.19-55.175-110.17-110.561-165.774-165.313c-9.609-9.462-19.165-19.063-29.095-28.236
			c-12.978-11.992-26.002-23.938-39.12-35.791c-9.454-8.547-18.813-17.22-28.72-25.228c-9.415-7.626-18.399-15.806-29.119-21.86
			c-5.008-2.828-9.375-7.023-14.478-9.892c-11.603-6.523-22.626-14.228-35.908-17.423c-10.782-2.594-21.673-3.766-32.689-3.359
			c-3.227,0.117-5.852-1.648-8.969-1.102C231.037,1321.063,230.912,1320.625,230.795,1320.18z M291.517,1297.319
			c-7.399,2.422-14.392,5.445-20.618,10.125c-2.367,1.781-5.453,3.345-4.477,6.892c0.805,2.906,4.078,2.953,6.461,3.609
			c8.251,2.266,16.252,5.125,23.877,8.984c21.822,11.048,41.072,25.893,59.737,41.416c29.221,24.275,56.808,50.386,83.7,77.224
			c25.618,25.556,50.636,51.705,75.816,77.699c18.282,18.876,36.986,37.33,55.401,56.081c12.345,12.571,24.501,25.337,36.736,38.018
			c1.133,1.164,2.563,2.977,4.063,1.563c1.563-1.477-0.336-2.93-1.391-4.102c-8.438-9.454-16.875-18.907-25.353-28.322
			c-19.462-21.595-38.893-43.205-58.433-64.722c-20.353-22.407-40.791-44.753-61.253-67.059
			c-15.899-17.329-31.721-34.736-47.917-51.776c-19.524-20.54-38.611-41.502-58.956-61.253
			c-12.509-12.148-25.189-24.126-40.166-33.314C310.33,1303.218,301.182,1299.858,291.517,1297.319z"/>
		<path fill="#25418F" d="M688.021,1256.021c1.852,8.914,1.93,17.704,0.82,26.298c-1.547,12.095-9.867,18.923-20.688,23.126
			c-0.758,0.297-1.711,0.289-2.328,0.75c-2.414,1.805-5.906,0.485-8.11,3.063c-2.43,2.844,0.383,5.508-0.023,8.344
			c-0.655,4.625-3.977,7.438-8.578,6.117c-11.234-3.227-21.024-9.195-30.439-15.954c-10.336-7.43-19.392-16.415-27.813-25.712
			c-7.501-8.289-14.485-17.563-17.728-28.782c-1.664-5.759,0.727-9.009,6.852-9.274c1.884-0.086,2.695-0.336,3.11-2.633
			c1.438-7.867,3.742-15.321,8.953-21.884c4.055-5.103,9.345-7.759,14.813-10.462c2.695-1.336,2.969,0.703,3.281,2.617
			c0.227,1.367-0.148,3.523,1.813,3.509c2.43-0.017,0.836-2.211,1.266-3.345c2.781-7.336,5.953-14.469,10.359-21.063
			c4.845-7.258,11.04-12.876,18.354-17.423c1.655-1.031,3.43-2.508,5.422-1.359c1.719,0.992,0.938,3.078,0.773,4.57
			c-1.235,11.337,3.109,21.571,6.078,32.072c1.172,4.172,2.297,8.359,3.539,12.517c0.359,1.188,0.563,2.734,2.18,2.969
			c1.898,0.273,2.078-1.164,2.227-2.531c0.016-0.164-0.055-0.422,0.031-0.485c2.454-1.789,3.165-6.313,6.602-5.938
			c3.078,0.336,3.048,4.367,3.743,6.797c3.516,12.321,6.852,24.721,6.078,37.768c-0.078,1.321-0.969,3.228,0.875,3.946
			c2.11,0.813,2-1.594,2.962-2.492C684.201,1259.552,684.795,1256.778,688.021,1256.021z M613.76,1280.123
			c4.712-2.844,9.181-5.781,13.478-8.984c6.242-4.673,11.673-10.165,16.743-16.063c8.43-9.813,7.57-21.446,5.484-32.783
			c-2.031-11.048-6.719-21.509-8.336-32.729c-0.484-3.398-2.109-3.664-4.563-1.203c-10.001,10.017-18.182,21.118-21.611,35.158
			c-2.125,8.688-0.508,16.853,2.821,24.993c3.055,7.478,0.398,13.376-7.29,16.626c2.688-5.898,3.829-11.891,0.61-17.212
			c-5.056-8.336-7.642-16.876-5.501-26.587c0.242-1.141,0.844-2.781-0.843-3.43c-1.445-0.556-2.415,0.617-3.445,1.43
			c-13.446,10.391-14.532,23.392-9.017,36.885c5.211,12.735,14.126,22.79,24.549,31.493c13.164,11.001,27.744,16.603,45.002,10.751
			c7.43-2.516,13.251-7.063,17.041-13.962c1.734-3.156,2.648-8.141,0.672-9.797c-2.54-2.125-4.173,2.898-6.548,4.328
			c-0.547,0.336-0.945,0.914-1.445,1.344c-5.844,5.078-12.282,8.712-20.337,8.509c-3.805-0.11-5.602-0.821-7.563-3.071
			c11.696-0.953,21.04-6.109,24.798-17.251c4.281-12.703,1.79-25.657-1.992-38.252c-0.258-0.875-0.602-2.063-1.93-1.828
			c-1.82,0.328-1.43,1.977-1.641,3.172c-2.703,14.962-9.633,27.385-21.735,36.83C633.059,1274.795,624.253,1279.381,613.76,1280.123
			z"/>
		<path fill="#25418F" d="M335.723,1202.471c-0.164,8.055-5.352,14.704-9.712,21.712c-6.617,10.642-15.023,19.813-23.446,29.017
			c-7.602,8.306-15.93,15.899-24.157,23.479c-8.813,8.117-18.79,15.095-29.118,21.462c-9.103,5.609-18.212,10.915-28.658,13.657
			c-7.134,1.867-13.196-3.962-11.907-11.501c1.071-6.289,4.634-11.438,7.845-16.587c5.797-9.289,12.899-17.642,19.884-26.11
			c7.719-9.368,16.993-16.829,25.845-24.861c14.173-12.852,29.838-23.587,46.714-32.485c5.883-3.102,11.735-6.829,18.798-6.782
			C333.246,1193.501,335.723,1196.174,335.723,1202.471z M325.487,1208.174c0.039-4.789-2.555-6.563-6.531-4.93
			c-10.931,4.492-21.345,10.016-31.088,16.712c-10.235,7.023-11.915,13.508-8.009,25.556c1.609,4.977,1.734,10.297-0.305,15.407
			c-0.453,1.141-1.93,2.438-0.57,3.531c1.478,1.195,2.813-0.242,3.821-1.227c3.75-3.696,7.469-7.431,11.094-11.251
			c10.86-11.438,21.267-23.235,29.025-37.104C324.206,1212.564,325.276,1210.213,325.487,1208.174z"/>
		<path fill="#25418F" d="M469.503,1425.686c-1.125-1.047-2.266-1.969-3.219-3.055c-0.961-1.102-1.587-2.5-2.603-3.539
			c-4.203-4.274-4.547-6.009-0.063-9.72c7.063-5.852,11.985-13.579,18.385-20.017c6.023-6.055,11.477-12.72,16.813-19.399
			c16.001-20.032,30.564-41.002,37.963-65.934c1.728-5.805,3.329-11.969,2.274-18.336c-0.79-4.767,1.616-9.337,1.234-14.126
			c-0.063-0.789,0.125-1.703,1.273-1.703c1.274,0,0.868,1.016,1.095,1.727c3.297,10.313,8.992,19.087,15.688,27.642
			c6.125,7.829,14.36,13.384,20.299,21.282c2.266,3.024,3.445,3.681-0.633,6.673c-8.563,6.305-16.783,13.173-25.096,19.845
			c-8.398,6.75-15.985,14.454-24.712,20.806c-2.454,1.789-4.212,4.531-6.336,6.805c-4.134,4.438-9.696,7.204-13.665,11.915
			c-8.609,10.22-19.313,18.392-28.143,28.393c-2.453,2.789-4.156,6.273-7.141,8.648
			C471.933,1424.381,470.745,1424.943,469.503,1425.686z"/>
		<path fill="#25418F" d="M434.306,1461.953c-0.375,2.18-1.415,3.766-2.907,5.195c-6.906,6.586-14.078,12.938-20.555,19.931
			c-14.563,15.712-30.533,30.096-44.729,46.065c-8.978,10.102-19.049,18.97-28.26,28.735c-1.328,1.406-3.578,3.742-4.711,1.641
			c-1.056-1.977-5.821-3.086-2.43-7.281c2.273-2.805,5.148-5.109,7.109-7.915c5.781-8.227,14.727-13.469,20.047-22.056
			c1.235-2,3.892-3.094,5.306-5.031c5.656-7.774,12.798-14.212,19.29-21.181c4.063-4.367,7.406-9.329,11.876-13.478
			c4.367-4.055,8.251-9.04,12.211-13.673c5.274-6.164,11.188-11.891,16.626-18.001c0.406-0.461,1.016-0.922,1.586-1.016
			C426.148,1453.687,434.267,1460.789,434.306,1461.953z"/>
		<path fill="#25418F" d="M622.519,1356.361c-6.656,0.727-13.165,2.203-19.478,4.445c-14.704,5.203-28.658,12.079-41.635,20.618
			c-14.938,9.837-29.33,20.354-42.682,32.494c-10.274,9.345-21.072,18.259-31.58,27.424c-1.578,1.375-2.664,1.227-4.258,0.055
			c-1.711-1.259-2.586-2.547-1.477-4.509c0.633-1.133,1.383-2.32,2.375-3.094c6.664-5.227,12.548-11.344,18.985-16.735
			c6.695-5.617,13.438-11.25,20.165-16.868c11.798-9.836,23.985-19.11,36.564-27.907c12.79-8.953,26.11-16.876,41.057-21.829
			c6.07-2.016,11.813-5.023,18.54-2.406c5.25,2.047,10.305,5.063,16.345,4.344c0.578-0.07,1.273,0.461,1.031,1.289
			c-0.258,0.852-0.977,1.352-1.828,1.453C630.598,1355.572,626.558,1355.955,622.519,1356.361z"/>
		<path fill="#25418F" d="M325.292,1591.257c-0.852,0.813-1.563,1.477-2.258,2.156c-7.806,7.531-15.899,14.79-23.329,22.657
			c-12.767,13.517-27.229,25.251-39.94,38.791c-3.141,3.344-5.43,0.766-7.648-0.703c-2.517-1.672-4.696-4.18-2.031-7.328
			c5.008-5.931,10.133-11.759,15.391-17.454c6.703-7.259,13.72-14.228,20.337-21.571c2.711-3.009,5.556-5.845,8.438-8.665
			c5.477-5.352,9.728-11.798,15.587-16.853c2.5-2.156,3.664-2.352,5.789,0.18c1.953,2.313,3.821,4.898,7.165,5.758
			C323.776,1588.49,324.401,1590.107,325.292,1591.257z"/>
		<path fill="#25418F" d="M565,1257.56c-6.859,5.031-4.555,10.852-1.672,16.376c4.07,7.773,9.539,14.477,15.531,21.001
			c4.392,4.773,8.704,9.578,13.681,13.681c11.501,9.469,22.36,19.868,36.518,25.563c5.376,2.164,10.407,3.078,14.72-2.172
			c2.336-2.845,4.172-1.899,5.477,1.141c1.094,2.555,2.234,5.086,3.398,7.609c1.945,4.203,0.242,7.009-4.469,7.626
			c-4.922,0.633-9.235-1.196-13.681-2.852c-14.329-5.353-27.142-13.173-38.689-23.127c-6.118-5.281-12.884-9.953-18.282-15.891
			c-12.009-13.212-23.924-26.635-29.861-44.058c-0.906-2.672-0.984-5.352,0.484-7.422c1.594-2.25,4.539-2.438,7.195-2.023
			C558.656,1253.528,561.336,1255.536,565,1257.56z"/>
		<path fill="#25418F" d="M341.254,1571.74c7.563-10.353,18.079-17.415,26.393-26.588c7.648-8.438,17.109-14.868,24.571-23.329
			c11.345-12.884,25.259-23.04,36.846-35.721c4.258-4.664,9.603-8.734,14.211-13.321c2.251-2.234,2.946-0.063,4.235,0.906
			c2.328,1.734,1.32,2.853-0.227,4.673c-9.462,11.125-21.111,19.962-31.494,30.11c-9.078,8.892-17.728,18.267-27.15,26.744
			c-8.953,8.055-17.234,16.743-25.985,24.931c-4.609,4.313-9.43,8.532-14.134,12.821
			C345.465,1575.732,343.605,1572.615,341.254,1571.74z"/>
		<path fill="#25418F" d="M318.924,1558.099c1.134,0.109,1.563,0.992,2.118,1.813c6.234,9.54,14.845,16.603,24.446,22.337
			c3.469,2.078,2.211,2.906,0.477,4.836c-3.195,3.54-6.07,5.048-11.047,2.141c-9.274-5.414-16.947-12.188-22.127-21.579
			C311.291,1564.958,316.003,1558.036,318.924,1558.099z"/>
		<path fill="#25418F" d="M649.77,1640.54c-0.102,4.259-2.203,7.438-4.695,10.079c-3.188,3.398-6.953,6.094-11.844,7.078
			c-4.063,0.82-5.431-1.602-6.243-4.445c-0.938-3.273,2.094-2.633,3.883-3.398c5.149-2.18,8.993-5.891,11.415-10.978
			c0.609-1.266,0.094-3.781,2.508-3.086C647.199,1636.485,650.23,1637.087,649.77,1640.54z"/>
		<path fill="#25418F" d="M633.996,1628.774c2.859-0.149,4.063,2.313,3.242,5.086c-1.609,5.461-5.539,8.164-10.431,10.063
			c-2.227,0.867-4.149,0.813-5.532-1.461c-1.758-2.898,1.095-3.336,2.469-4.195c3.29-2.047,6.993-3.531,8.001-7.883
			C632.004,1629.328,632.957,1628.915,633.996,1628.774z"/>
	</g>
</g>
</svg>
