<?xml version="1.0" encoding="UTF-8" standalone="no"?><svg width="965" height="516" viewBox="0 0 965 516" fill="none" xmlns="http://www.w3.org/2000/svg">
<rect width="965" height="516" fill="white"/>
<path fill-rule="evenodd" clip-rule="evenodd" d="M89.2669 274.855C91.6116 273.151 93.3309 271.136 94.5814 268.812C95.6755 266.488 96.3008 263.853 96.3008 261.219C96.3008 258.12 95.6755 255.331 94.4251 253.161C93.1746 250.837 91.6116 249.132 89.4233 247.583C87.235 246.033 84.5777 244.948 81.6079 244.019C78.6381 243.089 75.3556 242.314 71.7605 241.694C69.1033 241.229 67.0713 240.61 65.6646 239.99C64.2578 239.37 63.6326 238.285 63.6326 237.045C63.6326 235.341 64.2578 234.256 65.6646 233.636C67.0713 233.017 68.947 232.707 71.2916 232.707C72.5421 232.707 73.7925 232.862 75.043 233.171C76.4498 233.481 77.7002 233.946 78.9507 234.411C80.2011 235.031 81.2953 235.651 82.3894 236.271C83.4836 237.045 84.2651 237.665 85.0467 238.44L94.2688 228.678C93.4067 227.681 92.2805 226.814 91.0115 225.839C90.9 225.753 90.7874 225.666 90.6737 225.579C89.2669 224.494 87.5476 223.564 85.5156 222.789C83.4836 221.86 81.139 221.24 78.4817 220.775C75.6682 220.31 72.6984 220 69.1033 220C65.0393 220 61.4443 220.62 58.3181 221.705C55.192 222.789 52.691 224.339 50.5027 226.043C48.3144 227.748 46.7514 229.762 45.6572 231.932C44.5631 234.256 43.9378 236.271 43.9378 238.44C43.9378 240.61 44.2505 242.624 44.8757 244.638C45.5009 246.653 46.7514 248.512 48.4708 250.217C50.1901 251.922 52.5347 253.471 55.5046 254.866C58.4744 256.26 62.3821 257.19 66.915 257.965C70.6664 258.585 73.1673 259.205 74.5741 260.134C75.9808 260.909 76.6061 262.149 76.6061 263.543C76.6061 264.938 75.8245 265.868 74.2614 266.643C72.6984 267.417 70.6664 267.727 68.1655 267.727C66.4461 267.727 64.7267 267.417 63.0073 266.798C61.2879 266.178 59.7249 265.403 58.3181 264.628C58.0791 264.47 57.8447 264.317 57.6147 264.166C56.491 263.431 55.475 262.766 54.5667 261.994C53.4726 261.064 52.691 260.289 52.2221 259.669L43 270.672C43.9378 271.601 45.1883 272.686 46.5951 273.771C48.0018 274.855 49.7212 275.94 51.9095 276.87C53.9415 277.8 56.4424 278.574 59.256 279.194C62.0695 279.814 65.3519 280.124 69.1033 280.124C73.4799 280.124 77.2313 279.659 80.6701 278.729C84.1088 277.8 86.9223 276.56 89.2669 274.855ZM414.078 262.149C415.641 258.74 416.423 254.556 416.423 250.062C416.579 245.414 415.797 241.385 414.078 237.821C412.515 234.257 410.17 231.312 407.357 228.833C404.543 226.354 401.105 224.494 397.197 223.254C393.289 222.015 389.069 221.395 384.38 221.395H358.12V278.575H384.38C389.069 278.575 393.289 277.955 397.197 276.715C401.105 275.476 404.543 273.616 407.357 271.137C410.17 268.657 412.515 265.713 414.078 262.149ZM394.852 239.526C396.102 240.92 396.884 242.47 397.509 244.329C397.978 246.034 398.291 248.048 398.447 250.218C398.447 252.232 398.134 254.092 397.509 255.796C396.884 257.501 395.946 259.05 394.696 260.445C393.445 261.84 392.038 262.924 390.319 263.699C388.6 264.474 386.568 264.939 384.379 264.939H375.939V235.187L384.379 235.342C386.724 235.342 388.756 235.652 390.475 236.427C392.195 237.201 393.758 238.131 394.852 239.526ZM434.391 257.345H420.167L417.823 221.55H436.736L434.391 257.345ZM435.798 273.461C435.329 274.546 434.547 275.475 433.766 276.25C432.984 277.025 431.89 277.645 430.796 278.11C429.702 278.574 428.451 278.884 427.201 278.884C425.951 278.884 424.7 278.574 423.606 278.11C422.512 277.645 421.418 277.025 420.636 276.25C419.855 275.475 419.073 274.546 418.604 273.461C418.135 272.376 417.823 271.136 417.823 269.897C417.823 268.657 418.135 267.417 418.604 266.333C419.073 265.248 419.855 264.318 420.636 263.543C421.418 262.769 422.512 262.149 423.606 261.684C424.7 261.219 425.951 260.909 427.201 260.909C428.451 260.909 429.702 261.219 430.796 261.684C431.89 262.149 432.828 262.769 433.766 263.543C434.547 264.318 435.329 265.248 435.798 266.333C436.267 267.417 436.579 268.657 436.579 269.897C436.579 271.136 436.267 272.376 435.798 273.461ZM511.294 277.645C510.669 278.109 509.731 278.419 508.793 278.729C507.855 279.039 506.605 279.349 505.198 279.659C503.791 279.814 502.072 279.969 500.196 279.969C495.507 279.969 491.755 278.884 489.255 276.56C486.754 274.235 485.503 270.981 485.503 266.642V248.047H478.469V245.51L469.874 252.851C469.405 251.612 468.467 250.682 467.217 249.752C465.966 248.977 464.403 248.512 462.684 248.512C460.495 248.512 458.463 249.287 456.9 250.992C455.181 252.696 454.399 255.021 454.399 258.12C454.399 261.219 455.181 263.698 456.9 265.248C458.62 266.952 460.495 267.727 462.684 267.727C464.403 267.727 465.81 267.262 467.217 266.488C468.467 265.558 469.405 264.628 469.874 263.543L480.034 272.221C479.721 272.453 479.37 272.802 478.959 273.209L478.959 273.209C478.549 273.616 478.08 274.081 477.533 274.545C476.439 275.475 475.188 276.405 473.625 277.025C472.062 277.8 470.343 278.419 468.467 278.884C466.435 279.349 464.247 279.659 461.902 279.659C458.62 279.659 455.494 279.194 452.524 278.109C449.554 277.025 447.053 275.63 445.021 273.771C442.833 271.911 441.113 269.587 440.019 266.952C438.769 264.318 438.143 261.219 438.143 257.965C438.143 254.711 438.769 251.766 440.019 249.132C441.27 246.498 442.989 244.174 445.021 242.314C447.209 240.455 449.71 238.905 452.524 237.82C455.494 236.735 458.62 236.271 461.902 236.271C464.247 236.271 466.435 236.581 468.467 237.045C470.499 237.51 472.218 238.13 473.625 238.905C475.188 239.68 476.439 240.455 477.533 241.539C477.874 241.829 478.184 242.119 478.469 242.404V237.355H485.503V226.043H501.29V237.355H509.887V248.047H501.29V263.388C501.29 266.023 502.541 267.262 505.198 267.262C506.292 267.262 507.074 267.107 507.699 266.642C508.324 266.333 508.637 266.023 508.793 265.868L512.857 276.715C512.728 276.779 512.546 276.895 512.333 277.032L512.332 277.032L512.331 277.033L512.33 277.034L512.33 277.034C512.026 277.228 511.66 277.463 511.294 277.645ZM337.396 275.828V275.829V275.829V275.83V275.831V275.832V275.832C337.437 276.673 337.482 277.58 337.482 278.574V278.729H353.582C353.426 274.545 353.426 270.981 353.426 267.882V258.275V249.287C353.426 247.428 353.269 245.723 352.644 244.173C352.175 242.469 351.237 241.229 350.143 239.99C349.049 238.75 347.486 237.82 345.767 237.2C343.891 236.426 341.859 236.116 339.358 236.116C335.607 236.116 332.48 236.735 330.136 237.975C327.635 239.215 325.916 240.454 324.665 241.849V221.549H308.878V278.574H324.665V252.231C325.29 251.457 326.072 250.837 327.166 250.062C328.104 249.287 329.511 248.977 331.386 248.977C333.262 248.977 334.669 249.442 335.763 250.372C336.857 251.302 337.326 252.851 337.326 255.021V258.74V263.543V268.967V273.771C337.326 274.418 337.36 275.098 337.396 275.828ZM304.189 271.136C303.251 272.841 302.001 274.39 300.281 275.63C298.562 276.87 296.374 277.954 293.873 278.574C291.372 279.349 288.558 279.659 285.432 279.659C282.775 279.659 280.274 279.504 278.086 279.039C275.898 278.574 274.022 278.109 272.303 277.334C270.583 276.56 269.02 275.785 267.613 275.01C267.435 274.892 267.258 274.776 267.085 274.663L267.085 274.662L267.085 274.662C265.894 273.881 264.837 273.187 264.018 272.376L271.052 263.078C271.677 263.853 272.459 264.473 273.553 265.248L276.835 267.107C278.086 267.727 279.18 268.037 280.43 268.347C281.681 268.657 282.775 268.812 283.713 268.812C285.589 268.812 286.995 268.657 287.777 268.192C288.558 267.727 289.027 267.262 288.871 266.332C288.871 265.558 288.402 264.938 287.308 264.473C286.214 264.008 284.494 263.698 282.462 263.543C280.118 263.388 277.773 262.923 275.741 262.458C273.709 261.839 271.99 261.064 270.427 259.824C268.864 258.739 267.77 257.345 266.832 255.64C266.05 253.936 265.581 251.921 265.581 249.442C265.581 247.737 266.05 246.188 266.832 244.638C267.613 243.089 268.864 241.694 270.427 240.454C271.99 239.215 274.022 238.285 276.366 237.51C278.711 236.735 281.368 236.425 284.494 236.425C289.184 236.425 292.935 237.045 295.905 238.13C298.875 239.215 301.219 240.609 302.939 242.004L297.155 250.527C296.843 250.062 296.218 249.597 295.592 249.132C294.811 248.667 294.029 248.202 293.091 247.737C292.154 247.272 291.059 246.963 289.965 246.808C288.871 246.498 287.777 246.498 286.683 246.498C285.276 246.498 283.869 246.653 282.775 246.963C281.681 247.272 281.212 247.892 281.212 248.822C281.212 249.907 281.681 250.682 282.775 250.991C283.869 251.301 285.589 251.611 288.09 251.921C294.342 252.541 298.875 254.091 301.532 256.415C304.189 258.739 305.596 261.994 305.596 266.022C305.596 267.417 305.127 269.277 304.189 271.136ZM245.419 245.568C245.419 244.328 245.732 243.089 246.201 242.004C246.67 240.919 247.451 239.989 248.233 239.215C249.014 238.44 250.109 237.82 251.203 237.355C252.297 236.89 253.547 236.58 254.798 236.58C256.048 236.58 257.299 236.89 258.393 237.355C259.487 237.82 260.581 238.44 261.363 239.215C262.144 239.989 262.926 240.919 263.395 242.004C263.864 243.089 264.176 244.328 264.176 245.568C264.176 246.808 263.864 248.047 263.395 249.132C262.926 250.217 262.144 251.146 261.363 251.921C260.581 252.696 259.487 253.316 258.393 253.781C257.299 254.246 256.048 254.556 254.798 254.556C253.547 254.556 252.297 254.246 251.203 253.781C250.109 253.316 249.171 252.696 248.233 251.921C247.451 251.146 246.67 250.217 246.201 249.132C245.732 248.047 245.419 246.808 245.419 245.568ZM245.419 293.915L247.764 258.12H261.988L264.333 293.915H245.419ZM226.575 275.829L226.575 275.828C226.539 275.099 226.505 274.418 226.505 273.771V268.967V263.543V258.74V255.021C226.505 252.851 226.037 251.302 224.942 250.372C223.848 249.442 222.441 248.977 220.566 248.977C218.69 248.977 217.283 249.287 216.346 250.062C215.251 250.837 214.47 251.457 213.845 252.231V278.574H198.058V237.355H213.845V241.849C215.095 240.455 216.814 239.215 219.315 237.975C221.66 236.736 224.786 236.116 228.537 236.116C231.038 236.116 233.07 236.426 234.946 237.2C236.665 237.82 238.229 238.75 239.323 239.99C240.417 241.229 241.355 242.469 241.824 244.174C242.449 245.723 242.605 247.428 242.605 249.287V258.275V267.882C242.605 270.981 242.605 274.546 242.761 278.729H226.662V278.574C226.662 277.578 226.617 276.671 226.575 275.829ZM179.456 236.736C182.113 237.201 184.301 238.13 186.333 239.525C188.365 240.765 189.928 242.624 191.335 244.793C192.586 247.118 193.211 249.907 193.211 253.316V278.575H177.424V274.701C176.955 275.475 176.33 276.095 175.392 276.715C174.454 277.335 173.36 277.8 172.266 278.265C171.172 278.729 169.921 279.039 168.671 279.349C167.42 279.659 166.326 279.659 165.232 279.659C163.356 279.659 161.324 279.349 159.292 278.884C157.26 278.42 155.385 277.645 153.665 276.56C151.946 275.475 150.539 274.081 149.445 272.221C148.351 270.517 147.882 268.347 147.882 265.868C147.882 263.079 148.351 260.909 149.445 259.05C150.539 257.19 151.946 255.796 153.665 254.866C155.385 253.781 157.26 253.161 159.292 252.696C161.324 252.232 163.356 252.077 165.232 252.077C166.203 252.077 167.174 252.199 168.254 252.334L168.46 252.36L168.671 252.386C169.921 252.541 171.172 252.851 172.266 253.316C173.516 253.781 174.454 254.246 175.392 254.711L175.392 254.711C176.33 255.331 176.955 255.951 177.424 256.57V252.696C177.424 250.992 176.642 249.442 175.079 248.048C173.516 246.808 171.484 246.188 168.827 246.188C166.482 246.188 164.138 246.653 161.793 247.428C159.449 248.203 157.417 249.442 155.853 250.992L150.383 242.624C151.789 241.229 153.509 240.145 155.385 239.215C157.26 238.285 159.292 237.665 161.168 237.201C162.836 236.819 164.399 236.542 165.857 236.283L165.861 236.282C166.177 236.226 166.489 236.171 166.795 236.116C167.117 236.089 167.429 236.063 167.733 236.037C169.198 235.912 170.448 235.806 171.484 235.806C174.298 235.961 176.955 236.271 179.456 236.736ZM177.426 262.614C176.957 261.684 175.863 261.065 174.457 260.445C173.05 259.98 171.799 259.67 170.549 259.67C169.924 259.67 169.142 259.825 168.361 259.98C167.579 260.135 166.797 260.445 166.016 260.91C165.234 261.374 164.765 261.839 164.14 262.614C163.671 263.234 163.359 264.164 163.359 265.248C163.359 266.333 163.671 267.263 164.14 267.883C164.609 268.658 165.234 269.122 166.016 269.587C166.797 270.052 167.423 270.362 168.361 270.517C169.142 270.672 169.924 270.827 170.549 270.827C171.799 270.827 173.05 270.672 174.457 270.207C175.863 269.742 176.801 269.122 177.426 268.193V262.614ZM140.847 274.08C142.411 272.221 143.817 270.052 144.755 267.262C145.693 264.473 146.162 261.374 146.006 257.655C146.006 254.246 145.537 250.992 144.599 248.357C143.661 245.723 142.411 243.399 140.691 241.539C138.972 239.68 136.94 238.285 134.751 237.355C132.563 236.426 130.062 235.961 127.405 235.961C124.904 235.961 122.559 236.271 120.527 237.2C118.495 238.13 116.932 239.525 115.526 241.539V237.2H99.7386V295H115.526V274.08C116.932 276.095 118.652 277.645 120.684 278.419C122.716 279.194 124.904 279.659 127.561 279.659C130.219 279.659 132.719 279.194 134.908 278.264C137.252 277.335 139.128 275.94 140.847 274.08ZM122.09 248.203C124.122 248.203 125.998 248.977 127.561 250.682C129.124 252.387 130.062 254.711 129.749 257.965C129.749 261.064 128.968 263.389 127.405 265.093C125.842 266.798 124.122 267.572 121.934 267.572C120.996 267.572 119.746 267.418 118.495 267.108C117.245 266.798 116.307 266.178 115.525 265.248V250.527C116.307 249.597 117.401 248.977 118.651 248.668C119.902 248.358 121.152 248.203 122.09 248.203Z" fill="#1B85E5"/>
<path fill-rule="evenodd" clip-rule="evenodd" d="M809.533 274.545C808.439 275.475 807.188 276.405 805.625 277.025C804.062 277.8 802.343 278.419 800.467 278.884C798.435 279.349 796.247 279.659 793.902 279.659C790.62 279.659 787.494 279.194 784.524 278.11C781.554 277.025 779.053 275.63 777.021 273.771C774.833 271.911 773.113 269.587 772.019 266.952C770.769 264.318 770.144 261.219 770.144 257.965C770.144 254.711 770.769 251.767 772.019 249.132C773.27 246.498 774.989 244.174 777.021 242.314C779.209 240.455 781.71 238.905 784.524 237.82C787.494 236.736 790.62 236.271 793.902 236.271C796.247 236.271 798.435 236.581 800.467 237.045C802.499 237.51 804.219 238.13 805.625 238.905C807.188 239.68 808.439 240.455 809.533 241.539C810.627 242.469 811.409 243.399 812.034 244.174L801.874 252.851C801.405 251.612 800.467 250.682 799.217 249.752C797.966 248.977 796.403 248.512 794.684 248.512C792.495 248.512 790.463 249.287 788.9 250.992C787.181 252.696 786.4 255.021 786.4 258.12C786.4 261.219 787.181 263.698 788.9 265.248C790.62 266.952 792.495 267.727 794.684 267.727C796.403 267.727 797.81 267.262 799.217 266.488C800.467 265.558 801.405 264.628 801.874 263.543L812.034 272.221C811.409 272.686 810.627 273.616 809.533 274.545Z" fill="#1B85E5"/>
<path fill-rule="evenodd" clip-rule="evenodd" d="M615.079 278.459C615.079 276.599 614.923 275.05 614.923 273.655C614.923 272.105 614.923 270.556 614.923 268.851C614.923 266.992 614.923 265.287 614.923 263.428C614.923 261.723 614.923 260.019 614.923 258.624C614.923 257.074 614.923 255.835 614.923 254.905C614.923 252.736 614.454 251.186 613.359 250.256C612.265 249.326 610.859 248.862 608.983 248.862C607.107 248.862 605.7 249.171 604.763 249.946C603.668 250.721 602.887 251.341 602.262 252.116V278.459H586.475V237.24H602.262V241.733C603.512 240.339 605.231 239.099 607.732 237.86C610.077 236.62 613.203 236 616.955 236C619.455 236 621.487 236.31 623.363 237.085C625.082 237.705 626.646 238.634 627.74 239.874C628.834 241.114 629.772 242.353 630.241 244.058C630.866 245.607 631.022 247.312 631.022 249.171C631.022 251.806 631.022 254.75 631.022 258.159C631.022 261.568 631.022 264.667 631.022 267.767C631.022 270.866 631.022 274.43 631.178 278.614H615.079V278.459Z" fill="#1B85E5"/>
<path fill-rule="evenodd" clip-rule="evenodd" d="M671.851 239.525C669.819 238.131 667.631 237.201 664.973 236.736C662.473 236.271 659.815 235.961 657.002 235.806C655.966 235.806 654.715 235.912 653.25 236.037C652.947 236.063 652.634 236.089 652.313 236.116C652.005 236.172 651.692 236.227 651.375 236.283C649.917 236.542 648.354 236.819 646.686 237.201C644.81 237.666 642.778 238.285 640.902 239.215C639.026 240.145 637.307 241.23 635.9 242.624L641.371 250.992C642.934 249.443 644.966 248.203 647.311 247.428C649.655 246.653 652 246.188 654.345 246.188C657.002 246.188 659.034 246.808 660.597 248.048C662.16 249.443 662.941 250.992 662.941 252.697V256.571C662.473 255.951 661.847 255.331 660.909 254.711C659.972 254.246 659.034 253.781 657.783 253.316C656.689 252.852 655.439 252.542 654.188 252.387C654.048 252.369 653.909 252.352 653.772 252.335C652.692 252.199 651.721 252.077 650.75 252.077C648.874 252.077 646.842 252.232 644.81 252.697C642.778 253.162 640.902 253.781 639.183 254.866C637.463 255.796 636.057 257.19 634.962 259.05C633.868 260.909 633.399 263.079 633.399 265.868C633.399 268.347 633.868 270.517 634.962 272.221C636.057 274.081 637.463 275.476 639.183 276.56C640.902 277.645 642.778 278.42 644.81 278.885C646.842 279.35 648.874 279.659 650.75 279.659C651.844 279.659 652.938 279.659 654.188 279.35C655.439 279.04 656.689 278.73 657.783 278.265C658.877 277.8 659.972 277.335 660.909 276.715C661.847 276.095 662.473 275.476 662.941 274.701V278.575H678.729V253.316C678.729 249.907 678.103 247.118 676.853 244.794C675.446 242.624 673.883 240.765 671.851 239.525ZM659.973 260.445C661.379 261.065 662.474 261.685 662.943 262.614V268.193C662.317 269.123 661.379 269.742 659.973 270.207C658.566 270.672 657.315 270.827 656.065 270.827C655.44 270.827 654.658 270.672 653.877 270.517C652.939 270.362 652.314 270.052 651.532 269.587C650.751 269.123 650.125 268.658 649.656 267.883C649.188 267.263 648.875 266.333 648.875 265.249C648.875 264.164 649.188 263.234 649.656 262.614C650.282 261.84 650.751 261.375 651.532 260.91C652.314 260.445 653.095 260.135 653.877 259.98C654.658 259.825 655.44 259.67 656.065 259.67C657.315 259.67 658.566 259.98 659.973 260.445Z" fill="#1B85E5"/>
<path d="M577.384 273.141C573.143 277.372 567.468 279.488 560.361 279.488C553.253 279.488 547.579 277.372 543.337 273.141C539.153 268.909 537.061 263.763 537.061 257.701C537.061 251.64 539.153 246.522 543.337 242.347C547.579 238.116 553.253 236 560.361 236C567.468 236 573.143 238.116 577.384 242.347C581.626 246.522 583.747 251.64 583.747 257.701C583.747 263.763 581.626 268.909 577.384 273.141ZM560.361 265.85C562.711 265.85 564.545 265.106 565.863 263.62C567.182 262.076 567.841 260.103 567.841 257.701C567.841 255.357 567.182 253.441 565.863 251.954C564.545 250.41 562.711 249.638 560.361 249.638C558.068 249.638 556.262 250.41 554.944 251.954C553.626 253.441 552.966 255.357 552.966 257.701C552.966 260.103 553.626 262.076 554.944 263.62C556.262 265.106 558.068 265.85 560.361 265.85Z" fill="#1B85E5"/>
<path d="M531.68 235.844C530.018 237.502 527.983 238.331 525.575 238.331C523.168 238.331 521.105 237.502 519.385 235.844C517.723 234.128 516.892 232.07 516.892 229.668C516.892 227.266 517.723 225.236 519.385 223.578C521.105 221.863 523.168 221.005 525.575 221.005C527.983 221.005 530.018 221.863 531.68 223.578C533.399 225.236 534.259 227.266 534.259 229.668C534.259 232.07 533.399 234.128 531.68 235.844ZM533.313 279.638H517.837V241.333H533.313V279.638Z" fill="#1B85E5"/>
<path d="M718.224 294.338L720.295 281.114C721.179 281.61 722.228 281.858 723.443 281.858C726.426 281.858 728.166 281.334 728.663 280.287L728.994 279.461L713.253 237.878H728.994L736.616 261.69L744.321 237.878H760.062L742.664 283.759C741.007 288.057 738.687 290.95 735.705 292.437C732.722 293.98 728.828 294.834 724.023 295C721.648 295 719.715 294.779 718.224 294.338Z" fill="#1B85E5"/>
<path d="M698.958 279H683.481V237.878H698.958V242.424C700.276 240.88 702.139 239.537 704.546 238.393C707.011 237.249 709.39 236.677 711.682 236.677V251.431C710.822 251.145 709.647 251.002 708.157 251.002C703.629 251.002 700.562 251.974 698.958 253.918V279Z" fill="#1B85E5"/>
<path fill-rule="evenodd" clip-rule="evenodd" d="M754.798 277.006L754.783 276.991C753.269 275.424 752.491 273.539 752.491 271.391C752.491 269.241 753.27 267.373 754.798 265.848C756.365 264.285 758.259 263.474 760.426 263.474C762.588 263.474 764.46 264.281 765.982 265.848C767.553 267.366 768.361 269.234 768.361 271.391C768.361 273.553 767.549 275.442 765.981 277.006C764.454 278.53 762.581 279.307 760.426 279.307C758.272 279.307 756.383 278.531 754.813 277.02L754.798 277.006Z" fill="#1B85E5"/>
<path fill-rule="evenodd" clip-rule="evenodd" d="M859.232 278.558V257.143V236.729H873.349V238.195C875.864 236.728 878.707 236 881.85 236C884.432 236 886.795 236.49 888.914 237.495C890.628 238.307 892.12 239.401 893.384 240.77C894.851 239.389 896.53 238.291 898.418 237.478C900.715 236.488 903.209 236 905.883 236C908.982 236 911.768 236.698 914.204 238.124C916.625 239.542 918.522 241.515 919.885 244.021C921.306 246.545 922 249.437 922 252.661V278.558H907.883V254.265C907.883 252.34 907.362 250.941 906.432 249.936L906.424 249.927L906.416 249.918C905.541 248.931 904.359 248.407 902.742 248.407C901.571 248.407 900.542 248.623 899.635 249.034C898.863 249.384 898.176 249.886 897.57 250.553C897.589 250.813 897.6 251.08 897.601 251.352C897.65 251.771 897.674 252.208 897.674 252.661V278.558H883.558V254.265C883.558 252.34 883.037 250.941 882.107 249.936L882.099 249.927L882.091 249.918C881.216 248.931 880.034 248.407 878.417 248.407C877.246 248.407 876.216 248.623 875.31 249.034L875.298 249.039L875.287 249.044C874.558 249.356 873.913 249.819 873.349 250.451V278.558H859.232Z" fill="#1B85E5"/>
<path d="M850.384 273.141C846.143 277.372 840.468 279.488 833.361 279.488C826.253 279.488 820.579 277.372 816.337 273.141C812.153 268.909 810.061 263.763 810.061 257.701C810.061 251.64 812.153 246.522 816.337 242.347C820.579 238.116 826.253 236 833.361 236C840.468 236 846.143 238.116 850.384 242.347C854.626 246.522 856.747 251.64 856.747 257.701C856.747 263.763 854.626 268.909 850.384 273.141ZM833.361 265.85C835.711 265.85 837.545 265.106 838.863 263.62C840.182 262.076 840.841 260.103 840.841 257.701C840.841 255.357 840.182 253.441 838.863 251.954C837.545 250.41 835.711 249.638 833.361 249.638C831.068 249.638 829.262 250.41 827.944 251.954C826.626 253.441 825.966 255.357 825.966 257.701C825.966 260.103 826.626 262.076 827.944 263.62C829.262 265.106 831.068 265.85 833.361 265.85Z" fill="#1B85E5"/>
</svg>
